<svg width="347" height="68" viewBox="0 0 347 68" fill="none" xmlns="http://www.w3.org/2000/svg">
<path d="M342 50.356V46H346.136V50.356H342Z" fill="#F13024"/>
<path d="M177.224 50.432C174.856 50.432 172.696 49.952 170.744 48.992C168.824 48.032 167.32 46.72 166.232 45.056C165.144 43.392 164.6 41.52 164.6 39.44V18.608C164.6 17.776 164.808 17.136 165.224 16.688C165.64 16.208 166.248 15.968 167.048 15.968V39.44C167.048 41.104 167.48 42.608 168.344 43.952C169.208 45.264 170.408 46.288 171.944 47.024C173.512 47.76 175.272 48.128 177.224 48.128C179.176 48.128 180.92 47.76 182.456 47.024C184.024 46.288 185.24 45.264 186.104 43.952C186.968 42.608 187.4 41.104 187.4 39.44V18.608C187.4 17.744 187.608 17.088 188.024 16.64C188.44 16.192 189.048 15.968 189.848 15.968V39.44C189.848 41.52 189.288 43.392 188.168 45.056C187.08 46.72 185.576 48.032 183.656 48.992C181.736 49.952 179.592 50.432 177.224 50.432ZM205.486 50.432C203.63 50.432 202.014 50.16 200.638 49.616C199.262 49.04 198.19 48.272 197.422 47.312C196.686 46.352 196.318 45.28 196.318 44.096C196.318 42.944 196.894 42.368 198.046 42.368C198.27 44.416 198.99 45.92 200.206 46.88C201.454 47.84 203.214 48.32 205.486 48.32C207.598 48.32 209.23 47.952 210.382 47.216C211.534 46.448 212.11 45.344 212.11 43.904C212.11 42.944 211.886 42.16 211.438 41.552C211.022 40.944 210.286 40.432 209.23 40.016C208.174 39.568 206.67 39.152 204.718 38.768C201.838 38.192 199.758 37.36 198.478 36.272C197.23 35.184 196.605 33.712 196.605 31.856C196.605 30 197.39 28.496 198.958 27.344C200.526 26.16 202.526 25.568 204.958 25.568C207.294 25.568 209.262 26.112 210.862 27.2C212.494 28.256 213.374 29.664 213.502 31.424C213.566 31.968 213.438 32.416 213.118 32.768C212.798 33.088 212.334 33.264 211.726 33.296C211.566 31.504 210.894 30.096 209.71 29.072C208.526 28.048 206.942 27.536 204.958 27.536C203.166 27.536 201.694 27.936 200.542 28.736C199.422 29.536 198.862 30.576 198.862 31.856C198.862 33.136 199.342 34.16 200.302 34.928C201.262 35.664 202.878 36.256 205.15 36.704C208.542 37.376 210.91 38.256 212.254 39.344C213.63 40.4 214.318 41.872 214.318 43.76C214.318 45.808 213.518 47.44 211.918 48.656C210.318 49.84 208.174 50.432 205.486 50.432ZM220.809 18.32C220.809 16.752 221.545 15.968 223.017 15.968V28.784L222.105 29.84L222.153 30.08C223.177 28.736 224.505 27.648 226.137 26.816C227.769 25.984 229.385 25.568 230.985 25.568C233.673 25.568 235.785 26.288 237.321 27.728C238.857 29.136 239.625 31.104 239.625 33.632V48.032C239.625 48.8 239.433 49.392 239.049 49.808C238.665 50.224 238.121 50.432 237.417 50.432V33.536C237.417 31.584 236.873 30.112 235.785 29.12C234.697 28.096 233.113 27.584 231.033 27.584C229.721 27.584 228.441 27.872 227.193 28.448C225.945 28.992 224.937 29.728 224.169 30.656C223.401 31.552 223.017 32.48 223.017 33.44V48.032C223.017 49.632 222.281 50.432 220.809 50.432V18.32ZM254.984 50.432C252.168 50.432 249.896 49.712 248.168 48.272C246.472 46.8 245.624 44.848 245.624 42.416C245.624 39.952 246.456 38 248.12 36.56C249.816 35.088 252.12 34.352 255.032 34.352C258.424 34.352 261.096 35.6 263.048 38.096L263.192 38.048C262.872 37.6 262.584 37.216 262.328 36.896V33.68C262.328 31.76 261.752 30.288 260.6 29.264C259.448 28.208 257.8 27.68 255.656 27.68C251.88 27.68 249.288 29.264 247.88 32.432C247.56 32.144 247.304 31.824 247.112 31.472C246.952 31.088 246.872 30.736 246.872 30.416C246.872 29.648 247.304 28.896 248.168 28.16C249.032 27.392 250.136 26.768 251.48 26.288C252.856 25.808 254.232 25.568 255.608 25.568C258.328 25.568 260.488 26.304 262.088 27.776C263.688 29.248 264.488 31.232 264.488 33.728V48.032C264.488 48.8 264.296 49.392 263.912 49.808C263.528 50.224 262.984 50.432 262.28 50.432V47.84C262.856 47.264 263.192 46.848 263.288 46.592L263.144 46.448C262.184 47.696 260.984 48.672 259.544 49.376C258.104 50.08 256.584 50.432 254.984 50.432ZM254.792 48.32C257.128 48.32 258.984 47.792 260.36 46.736C261.736 45.648 262.424 44.208 262.424 42.416C262.424 40.592 261.752 39.152 260.408 38.096C259.096 37.04 257.272 36.512 254.936 36.512C252.76 36.512 251.048 37.04 249.8 38.096C248.552 39.12 247.928 40.56 247.928 42.416C247.928 44.272 248.536 45.728 249.752 46.784C250.968 47.808 252.648 48.32 254.792 48.32ZM290.717 50.096C290.269 50.32 289.837 50.432 289.421 50.432C289.037 50.432 288.701 50.368 288.413 50.24C288.157 50.112 287.901 49.872 287.645 49.52L278.957 36.416L274.157 41.168V48.032C274.157 49.632 273.421 50.432 271.949 50.432V18.272C271.949 17.536 272.141 16.976 272.525 16.592C272.909 16.176 273.453 15.968 274.157 15.968V38.624L287.357 25.664C287.517 25.856 287.645 26.048 287.741 26.24C287.869 26.432 287.933 26.608 287.933 26.768C287.933 27.12 287.837 27.44 287.645 27.728C287.453 27.984 287.117 28.336 286.637 28.784L280.493 34.88L290.717 50.096ZM303.944 50.432C302.088 50.432 300.424 50.08 298.952 49.376C297.512 48.672 296.376 47.712 295.544 46.496C294.744 45.28 294.344 43.952 294.344 42.512V33.536C294.344 32.096 294.744 30.768 295.544 29.552C296.376 28.336 297.512 27.376 298.952 26.672C300.424 25.936 302.088 25.568 303.944 25.568C305.8 25.568 307.448 25.936 308.888 26.672C310.36 27.376 311.496 28.336 312.296 29.552C313.128 30.768 313.544 32.096 313.544 33.536V42.512C313.544 43.952 313.128 45.28 312.296 46.496C311.496 47.712 310.36 48.672 308.888 49.376C307.448 50.08 305.8 50.432 303.944 50.432ZM303.944 48.416C306.184 48.416 307.976 47.872 309.32 46.784C310.696 45.664 311.384 44.256 311.384 42.56V33.536C311.384 31.808 310.696 30.384 309.32 29.264C307.976 28.144 306.184 27.584 303.944 27.584C301.704 27.584 299.896 28.144 298.52 29.264C297.176 30.384 296.504 31.808 296.504 33.536V42.56C296.504 44.256 297.176 45.664 298.52 46.784C299.896 47.872 301.704 48.416 303.944 48.416ZM327.158 50.432C326.966 50.432 326.774 50.368 326.582 50.24C326.39 50.112 326.262 49.968 326.198 49.808L316.406 25.808C316.726 25.648 317.078 25.568 317.462 25.568C317.878 25.568 318.23 25.68 318.518 25.904C318.806 26.128 319.046 26.48 319.238 26.96L327.014 46.544L326.39 48.128L326.582 48.224L334.982 26.96C335.366 26.032 335.974 25.568 336.806 25.568C337.158 25.568 337.494 25.648 337.814 25.808L328.022 49.808C327.99 49.936 327.878 50.064 327.686 50.192C327.494 50.352 327.318 50.432 327.158 50.432Z" fill="white"/>
<path d="M6.048 50C5.152 50 4.384 49.728 3.744 49.184C3.136 48.608 2.832 47.904 2.832 47.072V19.328C2.832 18.496 3.136 17.808 3.744 17.264C4.352 16.688 5.12 16.4 6.048 16.4H16.704C19.552 16.4 22.064 16.944 24.24 18.032C26.448 19.12 28.144 20.656 29.328 22.64C30.544 24.592 31.152 26.832 31.152 29.36V36.944C31.152 39.472 30.544 41.728 29.328 43.712C28.112 45.696 26.4 47.248 24.192 48.368C22.016 49.456 19.52 50 16.704 50H6.048ZM16.224 44.48C19.008 44.48 21.12 43.856 22.56 42.608C24 41.328 24.72 39.456 24.72 36.992V29.264C24.72 26.864 24 25.04 22.56 23.792C21.12 22.544 19.008 21.92 16.224 21.92H9.264V44.48H16.224ZM35.9726 30.176C35.9726 28.704 36.4366 27.568 37.3646 26.768C38.2926 25.968 39.7006 25.568 41.5886 25.568V28.448C41.0126 29.152 40.6286 29.664 40.4366 29.984L40.7726 30.176C41.7646 28.672 42.8206 27.536 43.9406 26.768C45.0606 25.968 46.3886 25.568 47.9246 25.568C50.7086 25.568 52.6286 26.928 53.6846 29.648C54.4846 28.368 55.5086 27.376 56.7566 26.672C58.0046 25.936 59.4126 25.568 60.9806 25.568C63.1566 25.568 64.8846 26.368 66.1646 27.968C67.4766 29.536 68.1326 31.552 68.1326 34.016V46.784C68.1326 48.064 67.6366 48.992 66.6446 49.568C65.6846 50.144 64.2126 50.432 62.2286 50.432V34.496C62.2286 33.312 61.9566 32.368 61.4126 31.664C60.9006 30.96 60.1006 30.608 59.0126 30.608C57.8606 30.608 56.8846 31.008 56.0846 31.808C55.3166 32.576 54.9326 33.792 54.9326 35.456V46.784C54.9326 48.064 54.4526 48.992 53.4926 49.568C52.5646 50.144 51.1086 50.432 49.1246 50.432V34.496C49.1246 33.28 48.8686 32.336 48.3566 31.664C47.8446 30.96 47.0446 30.608 45.9566 30.608C44.6126 30.608 43.5886 31.072 42.8846 32C42.2126 32.896 41.8766 34.128 41.8766 35.696V46.784C41.8766 48.064 41.3806 48.992 40.3886 49.568C39.4286 50.144 37.9566 50.432 35.9726 50.432V30.176ZM77.4566 23.312C76.3046 23.312 75.3446 22.976 74.5766 22.304C73.8406 21.6 73.4726 20.704 73.4726 19.616C73.4726 18.56 73.8406 17.696 74.5766 17.024C75.3446 16.32 76.3046 15.968 77.4566 15.968C78.6086 15.968 79.5526 16.32 80.2886 17.024C81.0566 17.696 81.4406 18.56 81.4406 19.616C81.4406 20.704 81.0566 21.6 80.2886 22.304C79.5526 22.976 78.6086 23.312 77.4566 23.312ZM74.4326 29.216C74.4326 27.904 74.9286 26.976 75.9206 26.432C76.9126 25.856 78.4166 25.568 80.4326 25.568V46.784C80.4326 48.064 79.9366 48.992 78.9446 49.568C77.9526 50.144 76.4486 50.432 74.4326 50.432V29.216ZM96.8966 50.432C94.3046 50.432 92.3846 49.68 91.1366 48.176C89.8886 46.672 89.2646 44.736 89.2646 42.368V30.464H84.3206C84.3206 28.96 84.6086 27.84 85.1846 27.104C85.7606 26.368 86.5286 26 87.4886 26H89.3606V22.016C89.3606 20.704 89.8406 19.776 90.8006 19.232C91.7606 18.656 93.2166 18.368 95.1686 18.368V26H101.553C101.553 27.6 101.249 28.752 100.641 29.456C100.033 30.128 99.0566 30.464 97.7126 30.464H95.2646V42.128C95.2646 43.248 95.4726 44.048 95.8886 44.528C96.3366 45.008 97.0886 45.248 98.1446 45.248C99.2646 45.248 100.385 44.944 101.505 44.336C101.825 44.624 102.081 44.992 102.273 45.44C102.465 45.856 102.561 46.288 102.561 46.736C102.561 47.696 102.065 48.56 101.073 49.328C100.081 50.064 98.6886 50.432 96.8966 50.432ZM119.418 30.752C117.53 30.752 115.994 31.264 114.81 32.288C113.626 33.28 113.034 34.528 113.034 36.032V46.784C113.034 48.064 112.554 48.992 111.594 49.568C110.634 50.144 109.13 50.432 107.082 50.432V30.176C107.082 28.704 107.546 27.568 108.474 26.768C109.434 25.968 110.874 25.568 112.794 25.568V28.4C112.314 28.944 111.93 29.472 111.642 29.984L111.93 30.176C113.946 27.104 116.474 25.568 119.514 25.568C120.89 25.568 121.93 25.936 122.634 26.672C123.338 27.376 123.69 28.272 123.69 29.36C123.69 30.192 123.466 30.896 123.018 31.472C122.154 30.992 120.954 30.752 119.418 30.752ZM129.485 60.032C128.237 60.032 127.245 59.6 126.509 58.736C125.805 57.872 125.453 56.624 125.453 54.992C126.413 55.152 127.213 55.232 127.853 55.232C129.069 55.232 130.029 54.912 130.733 54.272C131.469 53.632 132.269 52.352 133.133 50.432L133.901 48.656L124.637 26.048C124.861 25.92 125.245 25.808 125.789 25.712C126.365 25.616 126.829 25.568 127.181 25.568C128.109 25.568 128.957 25.776 129.725 26.192C130.493 26.576 131.021 27.12 131.309 27.824L136.445 41.312L135.629 43.568L136.061 43.712L142.253 27.824C142.541 27.088 143.053 26.528 143.789 26.144C144.557 25.76 145.405 25.568 146.333 25.568C146.685 25.568 147.133 25.616 147.677 25.712C148.253 25.808 148.669 25.92 148.925 26.048L138.173 52.16C137.053 54.848 135.821 56.832 134.477 58.112C133.165 59.392 131.501 60.032 129.485 60.032Z" fill="white"/>
</svg>
